HIERARCHY
ROOT Hips
{
	OFFSET 0.000000 100.481300 0.000000
	CHANNELS 6 Xposition Yposition Zposition Xrotation Yrotation Zrotation 
	JOINT Spine
	{
		OFFSET -0.279200 12.230698 -2.892100
		CHANNELS 3 Xrotation Yrotation Zrotation
		JOINT Spine1
		{
			OFFSET -0.232667 10.192268 -1.242267
			CHANNELS 3 Xrotation Yrotation Zrotation
			JOINT Spine1_split
			{
				OFFSET -0.232667 10.192268 -1.242267
				CHANNELS 3 Xrotation Yrotation Zrotation
				JOINT Spine2
				{
					OFFSET -0.232667 10.192268 -1.242267
					CHANNELS 3 Xrotation Yrotation Zrotation
					JOINT Neck
					{
						OFFSET -0.418800 17.814194 8.416900
						CHANNELS 3 Xrotation Yrotation Zrotation
						JOINT Head
						{
							OFFSET 0.000000 7.031097 3.806800
							CHANNELS 3 Xrotation Yrotation Zrotation
							JOINT HeadTop_End
							{
								OFFSET 0.000000 24.646606 12.978600
								CHANNELS 3 Xrotation Yrotation Zrotation
								End Site
								{
									OFFSET 0.000000 0.000000 0.000000
								}
							}
						}
					}
					JOINT LeftShoulder
					{
						OFFSET 8.476499 7.247704 -3.868750
						CHANNELS 3 Xrotation Yrotation Zrotation
						JOINT LeftShoulder_split
						{
							OFFSET 8.476499 7.247704 -3.868750
							CHANNELS 3 Xrotation Yrotation Zrotation
							JOINT LeftArm
							{
								OFFSET 9.308998 -2.777710 0.208600
								CHANNELS 3 Xrotation Yrotation Zrotation
								JOINT LeftForeArm
								{
									OFFSET 29.972298 0.000000 0.000000
									CHANNELS 3 Xrotation Yrotation Zrotation
									JOINT LeftHand
									{
										OFFSET 26.026505 0.000000 0.000000
										CHANNELS 3 Xrotation Yrotation Zrotation
										JOINT LeftHandThumb1
										{
											OFFSET 12.240501 -7.147949 9.207150
											CHANNELS 3 Xrotation Yrotation Zrotation
											JOINT LeftHandThumb2
											{
												OFFSET 4.138618 -2.389435 2.389433
												CHANNELS 3 Xrotation Yrotation Zrotation
												JOINT LeftHandThumb3
												{
													OFFSET 2.726913 -1.574387 1.574386
													CHANNELS 3 Xrotation Yrotation Zrotation
													JOINT LeftHandThumb4
													{
														OFFSET 3.941010 -2.275345 2.275342
														CHANNELS 3 Xrotation Yrotation Zrotation
														End Site
														{
															OFFSET 0.000000 0.000000 0.000000
														}
													}
												}
											}
										}
										JOINT LeftHandIndex1
										{
											OFFSET 24.424698 -1.985611 5.953459
											CHANNELS 3 Xrotation Yrotation Zrotation
											JOINT LeftHandIndex2
											{
												OFFSET 6.426697 0.000000 0.000000
												CHANNELS 3 Xrotation Yrotation Zrotation
												JOINT LeftHandIndex3
												{
													OFFSET 5.337898 0.000000 0.000000
													CHANNELS 3 Xrotation Yrotation Zrotation
													JOINT LeftHandIndex4
													{
														OFFSET 4.409401 0.000000 0.000000
														CHANNELS 3 Xrotation Yrotation Zrotation
														End Site
														{
															OFFSET 0.000000 0.000000 0.000000
														}
													}
												}
											}
										}
										JOINT LeftHandMiddle1
										{
											OFFSET 23.810104 0.000000 0.000000
											CHANNELS 3 Xrotation Yrotation Zrotation
											JOINT LeftHandMiddle2
											{
												OFFSET 7.176498 0.000000 0.000000
												CHANNELS 3 Xrotation Yrotation Zrotation
												JOINT LeftHandMiddle3
												{
													OFFSET 6.774902 0.000000 0.000000
													CHANNELS 3 Xrotation Yrotation Zrotation
													JOINT LeftHandMiddle4
													{
														OFFSET 5.403328 0.000000 0.000000
														CHANNELS 3 Xrotation Yrotation Zrotation
														End Site
														{
															OFFSET 0.000000 0.000000 0.000000
														}
													}
												}
											}
										}
										JOINT LeftHandRing1
										{
											OFFSET 22.908401 -0.839279 -6.020567
											CHANNELS 3 Xrotation Yrotation Zrotation
											JOINT LeftHandRing2
											{
												OFFSET 6.337502 0.000000 0.000000
												CHANNELS 3 Xrotation Yrotation Zrotation
												JOINT LeftHandRing3
												{
													OFFSET 5.779297 0.000000 0.000000
													CHANNELS 3 Xrotation Yrotation Zrotation
													JOINT LeftHandRing4
													{
														OFFSET 4.965698 0.000000 0.000000
														CHANNELS 3 Xrotation Yrotation Zrotation
														End Site
														{
															OFFSET 0.000000 0.000000 0.000000
														}
													}
												}
											}
										}
										JOINT LeftHandPinky1
										{
											OFFSET 20.037003 -1.530319 -10.950146
											CHANNELS 3 Xrotation Yrotation Zrotation
											JOINT LeftHandPinky2
											{
												OFFSET 5.254700 0.000000 0.000000
												CHANNELS 3 Xrotation Yrotation Zrotation
												JOINT LeftHandPinky3
												{
													OFFSET 4.810204 0.000000 0.000000
													CHANNELS 3 Xrotation Yrotation Zrotation
													JOINT LeftHandPinky4
													{
														OFFSET 3.647202 0.000000 0.000000
														CHANNELS 3 Xrotation Yrotation Zrotation
														End Site
														{
															OFFSET 0.000000 0.000000 0.000000
														}
													}
												}
											}
										}
									}
								}
							}
						}
					}
					JOINT RightShoulder
					{
						OFFSET -7.570500 7.247704 -3.868750
						CHANNELS 3 Xrotation Yrotation Zrotation
						JOINT RightShoulder_split
						{
							OFFSET -7.570500 7.247704 -3.868750
							CHANNELS 3 Xrotation Yrotation Zrotation
							JOINT RightArm
							{
								OFFSET -9.308998 -2.777710 0.208500
								CHANNELS 3 Xrotation Yrotation Zrotation
								JOINT RightForeArm
								{
									OFFSET -29.972300 0.000000 0.000000
									CHANNELS 3 Xrotation Yrotation Zrotation
									JOINT RightHand
									{
										OFFSET -26.026505 0.000000 0.000000
										CHANNELS 3 Xrotation Yrotation Zrotation
										JOINT RightHandThumb1
										{
											OFFSET -12.240601 -7.148026 9.207092
											CHANNELS 3 Xrotation Yrotation Zrotation
											JOINT RightHandThumb2
											{
												OFFSET -4.138618 -2.389435 2.389433
												CHANNELS 3 Xrotation Yrotation Zrotation
												JOINT RightHandThumb3
												{
													OFFSET -2.726974 -1.574417 1.574421
													CHANNELS 3 Xrotation Yrotation Zrotation
													JOINT RightHandThumb4
													{
														OFFSET -3.941010 -2.275345 2.275343
														CHANNELS 3 Xrotation Yrotation Zrotation
														End Site
														{
															OFFSET 0.000000 0.000000 0.000000
														}
													}
												}
											}
										}
										JOINT RightHandIndex1
										{
											OFFSET -24.424698 -1.985657 5.953444
											CHANNELS 3 Xrotation Yrotation Zrotation
											JOINT RightHandIndex2
											{
												OFFSET -6.426697 0.000000 0.000000
												CHANNELS 3 Xrotation Yrotation Zrotation
												JOINT RightHandIndex3
												{
													OFFSET -5.337898 0.000000 0.000000
													CHANNELS 3 Xrotation Yrotation Zrotation
													JOINT RightHandIndex4
													{
														OFFSET -4.409401 0.000000 0.000000
														CHANNELS 3 Xrotation Yrotation Zrotation
														End Site
														{
															OFFSET 0.000000 0.000000 0.000000
														}
													}
												}
											}
										}
										JOINT RightHandMiddle1
										{
											OFFSET -23.810097 0.000000 0.000000
											CHANNELS 3 Xrotation Yrotation Zrotation
											JOINT RightHandMiddle2
											{
												OFFSET -7.176498 0.000000 0.000000
												CHANNELS 3 Xrotation Yrotation Zrotation
												JOINT RightHandMiddle3
												{
													OFFSET -6.774902 0.000000 0.000000
													CHANNELS 3 Xrotation Yrotation Zrotation
													JOINT RightHandMiddle4
													{
														OFFSET -5.403328 0.000000 0.000000
														CHANNELS 3 Xrotation Yrotation Zrotation
														End Site
														{
															OFFSET 0.000000 0.000000 0.000000
														}
													}
												}
											}
										}
										JOINT RightHandRing1
										{
											OFFSET -22.908302 -0.839325 -6.020576
											CHANNELS 3 Xrotation Yrotation Zrotation
											JOINT RightHandRing2
											{
												OFFSET -6.337502 0.000000 0.000000
												CHANNELS 3 Xrotation Yrotation Zrotation
												JOINT RightHandRing3
												{
													OFFSET -5.779297 0.000000 0.000000
													CHANNELS 3 Xrotation Yrotation Zrotation
													JOINT RightHandRing4
													{
														OFFSET -4.965698 0.000000 0.000000
														CHANNELS 3 Xrotation Yrotation Zrotation
														End Site
														{
															OFFSET 0.000000 0.000000 0.000000
														}
													}
												}
											}
										}
										JOINT RightHandPinky1
										{
											OFFSET -20.037003 -1.530334 -10.950259
											CHANNELS 3 Xrotation Yrotation Zrotation
											JOINT RightHandPinky2
											{
												OFFSET -5.254700 0.000000 0.000000
												CHANNELS 3 Xrotation Yrotation Zrotation
												JOINT RightHandPinky3
												{
													OFFSET -4.810204 0.000000 0.000000
													CHANNELS 3 Xrotation Yrotation Zrotation
													JOINT RightHandPinky4
													{
														OFFSET -3.647202 0.000000 0.000000
														CHANNELS 3 Xrotation Yrotation Zrotation
														End Site
														{
															OFFSET 0.000000 0.000000 0.000000
														}
													}
												}
											}
										}
									}
								}
							}
						}
					}
				}
			}
		}
	}
	JOINT LeftUpLeg
	{
		OFFSET 15.427100 -6.655098 0.678600
		CHANNELS 3 Xrotation Yrotation Zrotation
		JOINT LeftLeg
		{
			OFFSET 4.081073 -39.591068 13.024000
			CHANNELS 3 Xrotation Yrotation Zrotation
			JOINT LeftFoot
			{
				OFFSET -4.081074 -37.707932 -15.979700
				CHANNELS 3 Xrotation Yrotation Zrotation
				JOINT LeftToeBase
				{
					OFFSET 5.346399 -15.068900 20.645000
					CHANNELS 3 Xrotation Yrotation Zrotation
					JOINT LeftToe_End
					{
						OFFSET 2.754700 0.931300 11.300900
						CHANNELS 3 Xrotation Yrotation Zrotation
						End Site
						{
							OFFSET 0.000000 0.000000 0.000000
						}
					}
				}
			}
		}
	}
	JOINT RightUpLeg
	{
		OFFSET -15.569500 -6.655098 0.678600
		CHANNELS 3 Xrotation Yrotation Zrotation
		JOINT RightLeg
		{
			OFFSET -4.081825 -39.591045 13.023800
			CHANNELS 3 Xrotation Yrotation Zrotation
			JOINT RightFoot
			{
				OFFSET 4.081824 -37.707954 -15.979600
				CHANNELS 3 Xrotation Yrotation Zrotation
				JOINT RightToeBase
				{
					OFFSET -5.346400 -15.068900 20.645000
					CHANNELS 3 Xrotation Yrotation Zrotation
					JOINT RightToe_End
					{
						OFFSET -2.754700 0.931300 11.300900
						CHANNELS 3 Xrotation Yrotation Zrotation
						End Site
						{
							OFFSET 0.000000 0.000000 0.000000
						}
					}
				}
			}
		}
	}
}
MOTION
Frames: 4
Frame Time: 0.016667
1.995683 94.693710 -0.783207 -0.892950 1.581738 -5.498630 1.300964 -1.198397 3.156389 0.728744 0.264195 5.944687 0.000000 0.000000 0.000000 0.710789 0.781493 5.851998 1.045309 -0.304693 -2.163987 1.584932 0.544179 -8.140494 -0.000000 -0.000000 -0.000000 3.582358 -13.764038 -5.044455 0.000000 0.000000 0.000000 4.032787 3.514250 -83.678348 -0.000002 -14.506750 0.000019 -27.592520 3.698842 -9.416212 18.491282 -0.461435 10.916070 1.284050 32.757608 -3.088947 2.117130 9.311159 -0.358620 0.000000 0.000002 -0.000000 0.339565 4.671348 -7.844260 0.387031 2.823577 -20.566222 0.034628 0.816833 -10.169810 0.000000 -0.000001 0.000001 0.912581 8.769264 -15.831726 0.919078 3.991135 -33.400434 0.170570 1.488881 -12.264417 0.000000 0.000000 -0.000002 2.555819 11.673026 -26.909195 1.710653 3.886781 -40.215471 0.544857 1.835070 -19.344149 -0.000000 -0.000000 -0.000000 5.576071 16.029165 -36.940631 1.378688 4.077644 -45.645611 0.486584 2.853389 -20.524732 -0.000001 -0.000000 0.000002 4.508130 3.324375 5.471580 0.000000 0.000000 0.000000 -1.219627 0.655869 67.345392 -0.000003 17.736782 -0.000005 -11.193159 -9.123242 10.139284 18.491279 0.461434 -10.916072 1.284072 -32.757604 3.088949 2.008698 -8.430484 1.114706 0.000001 -0.000002 0.000001 0.339564 -4.671355 7.844282 0.387030 -2.823579 20.566246 -0.193126 -0.216347 13.843938 -0.000000 -0.000000 0.000000 0.912583 -8.769265 15.831740 0.919072 -3.991134 33.400414 0.216467 -1.688832 15.898049 -0.000000 -0.000000 -0.000001 2.555814 -11.673027 26.909183 1.710651 -3.886787 40.215450 -0.157953 0.035276 17.815345 0.000000 -0.000000 -0.000000 5.576074 -16.029172 36.940638 1.378689 -4.077642 45.645628 -0.727748 -0.247556 22.122745 0.000001 -0.000000 0.000001 -17.244100 10.909843 17.844933 21.219016 8.461887 2.059532 -2.355608 4.172005 -10.927843 -0.419547 -0.000007 -0.000001 -0.000000 0.000000 0.000000 1.132873 -4.297033 10.254864 10.319408 -4.637724 3.785812 -10.482986 0.532053 -7.622003 -0.524594 -0.000003 0.000001 0.000000 0.000001 0.000000 
1.869684 94.742096 -0.788966 -0.842446 1.632792 -5.628584 1.265290 -1.197866 3.203604 0.804996 0.271352 5.942363 0.000000 0.000000 0.000000 0.791298 0.784184 5.830781 0.939036 -0.325876 -2.038776 0.998202 0.423417 -7.945849 0.000000 -0.000000 -0.000000 3.578789 -13.707251 -5.015857 0.000000 0.000000 0.000000 3.780836 3.390087 -83.456032 0.000001 -14.511150 -0.000020 -27.318752 4.020867 -9.432618 18.491282 -0.461435 10.916071 1.284050 32.757608 -3.088948 2.117130 9.311154 -0.358619 0.000000 -0.000005 -0.000001 0.339564 4.671348 -7.844262 0.387032 2.823577 -20.566222 0.034626 0.816833 -10.169812 -0.000001 0.000000 -0.000001 0.912581 8.769265 -15.831728 0.919079 3.991133 -33.400438 0.170571 1.488880 -12.264417 -0.000002 -0.000002 0.000001 2.555818 11.673027 -26.909195 1.710658 3.886782 -40.215467 0.544857 1.835069 -19.344149 -0.000002 0.000000 0.000000 5.576070 16.029166 -36.940621 1.378690 4.077644 -45.645611 0.486585 2.853389 -20.524729 -0.000001 -0.000000 0.000001 4.481676 3.349433 5.590987 0.000000 0.000000 0.000000 -1.177696 1.237858 67.216233 -0.000001 17.736826 0.000008 -11.184835 -8.945795 10.174459 18.491279 0.461434 -10.916071 1.284070 -32.757604 3.088949 2.008697 -8.430482 1.114704 0.000001 -0.000005 0.000001 0.339564 -4.671354 7.844284 0.387030 -2.823579 20.566246 -0.193126 -0.216347 13.843934 0.000000 -0.000000 -0.000002 0.912582 -8.769266 15.831745 0.919072 -3.991133 33.400411 0.216467 -1.688831 15.898051 -0.000000 -0.000000 0.000002 2.555814 -11.673027 26.909188 1.710651 -3.886786 40.215457 -0.157954 0.035277 17.815345 -0.000000 0.000000 0.000000 5.576073 -16.029172 36.940638 1.378690 -4.077643 45.645625 -0.727749 -0.247557 22.122744 0.000001 0.000000 -0.000001 -17.309332 10.811318 18.058969 21.125896 8.545103 2.083180 -2.242766 4.057491 -11.042664 -0.419543 0.000000 0.000003 -0.000000 0.000002 0.000000 1.240769 -4.162719 10.455929 9.976495 -4.747556 3.854837 -10.320273 0.490166 -7.746637 -0.515510 -0.000004 0.000001 0.000000 0.000001 0.000000 
1.745529 94.781235 -0.793138 -0.792865 1.686248 -5.759384 1.229549 -1.206257 3.248011 0.883787 0.274246 5.935621 0.000000 0.000000 0.000000 0.874438 0.782059 5.804659 0.823466 -0.344953 -1.909929 0.389958 0.303444 -7.738951 0.000000 -0.000000 0.000000 3.574452 -13.651339 -4.988284 0.000000 0.000000 0.000000 3.522157 3.255676 -83.224632 0.000005 -14.517249 0.000023 -27.029903 4.361257 -9.454729 18.491284 -0.461435 10.916068 1.284050 32.757608 -3.088947 2.117130 9.311156 -0.358620 0.000000 -0.000003 -0.000000 0.339567 4.671349 -7.844262 0.387033 2.823578 -20.566222 0.034627 0.816832 -10.169807 0.000002 0.000001 -0.000005 0.912583 8.769264 -15.831728 0.919079 3.991135 -33.400438 0.170571 1.488881 -12.264417 -0.000002 0.000000 0.000001 2.555820 11.673026 -26.909192 1.710653 3.886782 -40.215467 0.544857 1.835068 -19.344149 -0.000002 0.000000 0.000000 5.576072 16.029166 -36.940627 1.378689 4.077643 -45.645611 0.486583 2.853389 -20.524730 -0.000000 -0.000000 0.000002 4.449801 3.381857 5.730767 0.000000 0.000000 0.000000 -1.131087 1.840466 67.077082 0.000004 17.687979 -0.000012 -11.183874 -8.708330 10.219248 18.491282 0.461434 -10.916070 1.284072 -32.757604 3.088950 2.008699 -8.430482 1.114703 0.000000 -0.000000 0.000001 0.339564 -4.671355 7.844284 0.387030 -2.823579 20.566244 -0.193126 -0.216346 13.843934 0.000000 0.000000 -0.000005 0.912582 -8.769265 15.831742 0.919072 -3.991133 33.400407 0.216467 -1.688832 15.898052 -0.000000 0.000000 0.000000 2.555814 -11.673027 26.909188 1.710651 -3.886786 40.215457 -0.157954 0.035276 17.815341 0.000001 0.000000 -0.000000 5.576073 -16.029170 36.940641 1.378690 -4.077642 45.645625 -0.727749 -0.247556 22.122749 -0.000000 0.000000 0.000000 -17.386182 10.708870 18.272255 21.057707 8.618152 2.109565 -2.142424 3.952231 -11.157482 -0.419546 -0.000002 0.000001 -0.000000 0.000000 0.000000 1.339225 -4.028977 10.657228 9.659422 -4.860557 3.920805 -10.173986 0.450201 -7.867662 -0.510300 -0.000004 -0.000004 0.000000 -0.000000 -0.000000 
1.627397 94.795891 -0.792808 -0.745539 1.746416 -5.891173 1.193929 -1.223001 3.286756 0.965308 0.273020 5.924296 0.000000 0.000000 0.000000 0.960402 0.775222 5.773463 0.698737 -0.362128 -1.777487 -0.238802 0.182365 -7.518666 0.000000 0.000000 0.000000 3.569242 -13.596743 -4.962269 0.000000 0.000000 0.000000 3.256766 3.110455 -82.983144 0.000005 -14.524935 0.000013 -26.724493 4.721301 -9.483389 18.491282 -0.461435 10.916067 1.284050 32.757608 -3.088946 2.117129 9.311153 -0.358619 0.000000 0.000003 -0.000000 0.339565 4.671349 -7.844261 0.387028 2.823577 -20.566226 0.034627 0.816832 -10.169807 -0.000000 0.000000 -0.000003 0.912582 8.769263 -15.831726 0.919082 3.991135 -33.400438 0.170571 1.488881 -12.264417 -0.000000 -0.000000 0.000001 2.555816 11.673025 -26.909195 1.710655 3.886781 -40.215467 0.544860 1.835069 -19.344149 -0.000001 0.000001 0.000000 5.576068 16.029166 -36.940627 1.378690 4.077644 -45.645611 0.486583 2.853389 -20.524732 0.000000 -0.000001 -0.000002 4.412046 3.421894 5.891972 0.000000 0.000000 0.000000 -1.079196 2.463876 66.927173 -0.000003 17.587211 0.000005 -11.191069 -8.406593 10.273792 18.491279 0.461435 -10.916072 1.284070 -32.757604 3.088950 2.008699 -8.430480 1.114705 -0.000001 -0.000001 0.000001 0.339564 -4.671354 7.844285 0.387030 -2.823579 20.566244 -0.193126 -0.216346 13.843929 -0.000000 0.000000 -0.000001 0.912582 -8.769264 15.831745 0.919072 -3.991133 33.400407 0.216467 -1.688831 15.898051 -0.000001 0.000000 0.000001 2.555814 -11.673026 26.909188 1.710652 -3.886786 40.215461 -0.157953 0.035276 17.815341 -0.000000 0.000000 -0.000000 5.576073 -16.029170 36.940644 1.378689 -4.077642 45.645628 -0.727750 -0.247556 22.122744 0.000001 0.000000 -0.000001 -17.493994 10.595855 18.482005 21.056563 8.663697 2.142294 -2.076269 3.871996 -11.272023 -0.419548 -0.000000 0.000003 0.000000 -0.000000 -0.000000 1.406097 -3.896703 10.856550 9.422429 -4.979510 3.977113 -10.074882 0.412572 -7.974122 -0.514994 0.000003 0.000000 0.000000 0.000001 0.000000 
